<svg id="Capa_1" enable-background="new 0 0 512 512" height="512" viewBox="0 0 512 512" width="512" xmlns="http://www.w3.org/2000/svg" xmlns:xlink="http://www.w3.org/1999/xlink"><linearGradient id="SVGID_1_" gradientUnits="userSpaceOnUse" x1="256" x2="256" y1="512" y2="30"><stop offset="0" stop-color="#5558ff"/><stop offset="1" stop-color="#00c0ff"/></linearGradient><linearGradient id="SVGID_2_" gradientUnits="userSpaceOnUse" x1="241" x2="241" y1="422" y2="0"><stop offset="0" stop-color="#addcff"/><stop offset=".5028" stop-color="#eaf6ff"/><stop offset="1" stop-color="#eaf6ff"/></linearGradient><g><g><g><path d="m450 225v-47.578c0-6.35 3.993-12.011 9.976-14.138 11.635-4.134 20.024-15.277 20.024-28.284s-8.389-24.15-20.024-28.285c-5.979-2.125-9.976-7.792-9.976-14.137v-47.578c0-8.284-6.716-15-15-15h-47.578c-6.35 0-12.011 3.993-14.138 9.976-4.134 11.635-15.277 20.024-28.284 20.024s-24.15-8.389-28.285-20.024c-2.125-5.98-7.792-9.976-14.137-9.976h-62.578l-30 97.5 30 112.5h195c8.284 0 15-6.716 15-15zm-43 77c-57.891 0-105 47.109-105 105s47.109 105 105 105 105-47.109 105-105-47.109-105-105-105zm-377-62v62.578c0 6.35-3.993 12.011-9.976 14.138-11.635 4.134-20.024 15.277-20.024 28.284s8.389 24.15 20.024 28.285c5.98 2.125 9.976 7.792 9.976 14.137v47.578c0 8.284 6.716 15 15 15h47.578c6.35 0 12.012-3.993 14.138-9.976 4.134-11.635 15.277-20.024 28.284-20.024s24.15 8.389 28.285 20.024c2.125 5.979 7.792 9.976 14.138 9.976h47.577c8.284 0 15-6.716 15-15v-195l-105-60z" fill="url(#SVGID_1_)"/></g></g><g id="Time_Management_11_"><g><g><path d="m437 392h-15v-15c0-8.291-6.709-15-15-15s-15 6.709-15 15v30c0 8.291 6.709 15 15 15h30c8.291 0 15-6.709 15-15s-6.709-15-15-15zm-187.024-285.285c-5.979-2.125-9.976-7.792-9.976-14.137v-62.578h-62.578c-6.35 0-12.011-3.993-14.138-9.976-4.134-11.635-15.277-20.024-28.284-20.024s-24.15 8.389-28.285 20.024c-2.125 5.979-7.792 9.976-14.137 9.976h-47.578c-8.284 0-15 6.716-15 15v47.578c0 6.35 3.993 12.011 9.976 14.138 11.635 4.134 20.024 15.277 20.024 28.284s-8.389 24.15-20.024 28.285c-5.98 2.125-9.976 7.792-9.976 14.137v62.578h62.578c6.35 0 12.012-3.993 14.138-9.976 4.134-11.635 15.277-20.024 28.284-20.024s24.15 8.389 28.285 20.024c2.125 5.979 7.792 9.976 14.138 9.976h62.577v-62.578c0-6.35 3.993-12.011 9.976-14.138 11.635-4.134 20.024-15.277 20.024-28.284s-8.389-24.15-20.024-28.285z" fill="url(#SVGID_2_)"/></g></g></g></g></svg>